<svg height="435pt" viewBox="-64 0 435 435" width="435pt" xmlns="http://www.w3.org/2000/svg"><path d="m307 40v355c.007812 22.09375-17.90625 40.007812-40 40h-227c-22.09375.007812-40.0078125-17.90625-40-40v-355c-.0078125-22.09375 17.90625-40.0078125 40-40h227c22.09375-.0078125 40.007812 17.90625 40 40zm-38 350v-45h-51v45zm0-90v-45h-51v45zm0-90v-45h-51v45zm0-90v-75h-231v75zm-90 270v-45h-51v45zm0-90v-45h-51v45zm0-90v-45h-51v45zm-90 180v-45h-51v45zm0-90v-45h-51v45zm0-90v-45h-51v45zm0 0" fill="#00acea"/><path d="m218 345h51v45h-51zm0 0" fill="#00efd1"/><path d="m218 255h51v45h-51zm0 0" fill="#00efd1"/><path d="m218 165h51v45h-51zm0 0" fill="#00efd1"/><path d="m38 45h231v75h-231zm0 0" fill="#d4e1f4"/><g fill="#00efd1"><path d="m128 345h51v45h-51zm0 0"/><path d="m128 255h51v45h-51zm0 0"/><path d="m128 165h51v45h-51zm0 0"/><path d="m38 345h51v45h-51zm0 0"/><path d="m38 255h51v45h-51zm0 0"/><path d="m38 165h51v45h-51zm0 0"/></g></svg>